<?xml version="1.0" encoding="UTF-8"?>
<svg id="Réteg_1" xmlns="http://www.w3.org/2000/svg" version="1.1" viewBox="0 0 1080 474.6">
  <!-- Generator: Adobe Illustrator 29.1.0, SVG Export Plug-In . SVG Version: 2.1.0 Build 142)  -->
  <defs>
    <style>
      .st0 {
        fill: #fff;
      }
    </style>
  </defs>
  <rect class="st0" x="886.4" y="397.4" width="15.4" height="11.8"/>
  <g>
    <path class="st0" d="M340.8,400.2c-6.1,0-10.8,2.3-14.3,6.8v-22.5h-5.5v53.5h5.5v-5.9c3.5,4.5,8.2,6.8,14.3,6.8s9.9-1.9,13.4-5.7c3.5-3.8,5.2-8.3,5.2-13.7s-1.7-10-5.2-13.8c-3.5-3.8-7.9-5.7-13.4-5.7ZM349.7,429.8c-2.6,2.8-6,4.1-10.2,4.1s-5.3-.8-7.7-2.3c-2.4-1.6-4.2-3.6-5.3-6v-12.1c1.1-2.4,2.8-4.4,5.2-6,2.4-1.6,5-2.3,7.8-2.3,4.1,0,7.5,1.4,10.2,4.2,2.7,2.8,4,6.2,4,10.2s-1.3,7.4-4,10.2Z"/>
    <path class="st0" d="M384,430.1l-13.1-29h-6.1l16.4,35.5c-1.8,4.3-3.5,7.4-5.1,9.2-1.6,1.9-3.6,2.8-5.8,2.8s-3.5-.4-5-1.2v5.1c1.3.7,3.2,1.1,5.9,1.1,5.5,0,9.9-3.8,13.2-11.5l18.3-41h-6l-12.7,29Z"/>
    <path class="st0" d="M577.5,363.5h-118.2c-10.5,0-19.3,3.7-26.7,11-7.3,7.3-11,16.2-11,26.7v35.8c0,10.5,3.7,19.3,11,26.7,7.4,7.3,16.2,11,26.7,11h118.2c10.5,0,19.3-3.7,26.7-11s11-16.2,11-26.7v-35.8c0-10.5-3.7-19.3-11-26.7s-16.2-11-26.7-11ZM514.2,453.6h-68.6v-67.6h21.9v49.4h46.6v18.2ZM598.2,417.6c-1,13.3-7.3,19.6-18.6,19.1h-40.5v16.7h-20.5v-66.9h61c11.4,0,17.6,5.9,18.6,17.9v13.2Z"/>
    <path class="st0" d="M573.2,403.4h-33.9v16.3h32.5c2.7,0,4.4-2,5.2-5.5v-4.5c-.3-3.6-1.5-5.6-3.8-6.3Z"/>
    <rect class="st0" x="758.6" y="397.1" width="14.6" height="55.6"/>
    <rect class="st0" x="886.5" y="413.6" width="15.4" height="40"/>
    <path class="st0" d="M869.9,439.5c0,2.7-1.6,4.2-4.7,4.5h-2.8c-1.8-.2-3.4-1.2-4.7-3.1v-16.5h23.5v-11h-22.8v-8.8h-14.4v8.9h-8.5v11.1h8.3v22.3c1.1,4,4.7,6.3,10.8,6.9h16.5c6.5-.5,10.3-4,11.5-10.6v-7.3h-12.7v3.6Z"/>
    <path class="st0" d="M738.8,412.5h-25.6c-9.6.5-14.6,4.6-15.1,12.4v16c.7,8.6,6.2,12.9,16.7,13h17.9c14.2.5,21.1-4.5,20.5-14.9v-11.8c.5-8.4-4.3-13.3-14.4-14.8ZM738.6,436c-.2,4.7-2.4,7-6.9,6.8h-11.8c-5.2.3-7.9-1.5-8.2-5.2v-7.7c0-4,2.4-6.1,7.3-6.4h12.7c4.5.6,6.8,2.6,6.9,6.1v6.4Z"/>
    <path class="st0" d="M817.9,435.1c0,5.1-2.4,7.8-6.8,8.2h-11.1c-3.7,0-5.8-2.4-6.1-7.3v-22.1h-14.3v27c1.4,7.3,6.3,11.8,14.8,13.2h12.7c5.7-.9,9.7-3.8,11.8-8.5v7.1h13.5v-39.1h-14.4v21.5Z"/>
    <path class="st0" d="M676.1,418.3h-27.3c-3.9-.5-5.8-2.3-5.9-5.2.8-2.4,2.8-3.4,6.1-3.3h22.6c2.2,0,3.6,1.1,4,3.1v2.1h16v-7.3c0-6.6-4.5-10.2-13.9-10.8h-39.6c-6.3,2-9.9,5.7-10.8,11.3v10.4c0,7.7,4.4,11.9,13.2,12.4h32.3c2.5.6,4,1.9,4.4,4v3.8c-.8,1.4-2.3,2.3-4.2,2.5h-26.4c-2.4-1.2-3.6-2.6-3.5-4.4v-2.2h-16.5v8.8c1,6.1,6.5,9.4,16.2,10.1h32.8c12,0,17.8-4.4,17.4-13.2v-11.8c.6-6.4-5.1-9.9-16.9-10.4Z"/>
    <path class="st0" d="M948.3,413.1h-25.6c-9.9,0-15,4.2-15.1,12.4v16c.5,8.1,6,12.4,16.7,13h17.9c12.7.9,19.6-4,20.5-14.9v-11.8c-.2-9.5-5-14.5-14.4-14.8ZM948.1,436.7c0,4.8-2.3,7.1-6.9,6.8h-11.8c-5.6.3-8.3-1.5-8.2-5.2v-7.7c-.5-4.4,2-6.5,7.3-6.4h12.7c4.3.7,6.6,2.6,6.9,6.1v6.4Z"/>
    <path class="st0" d="M1007,413.1h-11.3c-6-.3-10.8,1.9-14.4,6.4v-5.9h-13.7v38.9h14.9v-21.7c.8-4.2,3.5-6.6,8-7.1h9.4c3.3.5,5.5,2.4,6.3,5.7v23.7h14.9v-25.9c-.3-8.1-5-12.8-14.1-14.1Z"/>
    <path class="st0" d="M1070.8,428h-26.8c-2.5-.3-3.9-1.2-4-2.8,0-1.7,1.2-2.8,3.3-3.3h12.7c3.8-.4,6.3.8,7.7,3.3h13.9v-5.9c-1.7-4.2-5.7-6.4-12.2-6.6h-26.4c-7.3.8-11.4,4.1-12.2,9.7v7.3c.7,4.8,4.2,7.5,10.8,8.3h23.1c2.7-.3,4.5.8,5.4,3.5-1,2.6-3.3,4.1-6.6,4.2h-11.3c-4.7,0-7.2-1.8-7.3-4.9h-14.9v4.2c2.2,5.7,6.2,8.4,12.1,8h25.4c9.7.7,15.2-2,16.5-8v-8.5c-.9-5.5-4.1-8.3-9.2-8.5Z"/>
  </g>
  <g>
    <path class="st0" d="M59.9,264.2c-37-34.4-39.1-92.2-4.5-129.2,34.5-36.9,92.5-39,129.5-4.5h38.5c-.4-.6-.8-1.2-1.2-1.8-8.7-12.9-19.8-24-32.8-32.7-34-22.9-77.4-27.1-115.2-11.2-21.7,9.1-40.2,24.4-53.4,43.9C-2.2,162.7-6.4,205.8,9.6,243.5c9.2,21.6,24.5,40.2,44,53.3,20,13.5,43.7,20.7,67.9,20.7,16.2,0,32.3-3.2,47.3-9.5,21.7-9.1,40.3-24.4,53.4-43.9.7-1.1,1.5-2.1,2.1-3.3h-36c-34.8,35.9-91.8,37.4-128.4,3.4Z"/>
    <path class="st0" d="M1072.5,186.6c-7.1-16.8-19-31.3-34.3-41.5-15.6-10.5-34-16.1-52.8-16.1-12.6,0-25.2,2.5-36.8,7.4-16.9,7.1-31.3,19-41.6,34.2-17.9,26.4-21.2,60-8.7,89.4,7.1,16.8,19,31.3,34.3,41.5,26.5,17.8,60.2,21.1,89.6,8.7,16.9-7.1,31.3-19,41.6-34.2,17.9-26.5,21.2-60.1,8.7-89.5ZM985.3,288.8c-36.3,0-65.9-29.4-65.9-65.7s29.5-65.7,65.9-65.7,65.9,29.4,65.9,65.7-29.5,65.7-65.9,65.7Z"/>
    <path class="st0" d="M418.3,129c-50.3-1.3-92,38.4-93.2,88.5,0,2,0,3.9,0,5.9,0,55.2,39.9,94.7,99.9,94.7,27.7,1.3,54.5-9.7,73.2-30.1l-18.5-21.7c-13.7,14.9-33.3,23.1-53.6,22.4-36.8,0-63.1-21.7-67.3-54.2h150.6c.4-3.2.7-7.3.7-10.1,0-56.9-38.2-95.3-91.8-95.3ZM358.8,210.4c2.5-30.7,28.7-54.1,59.5-53.1,30.8-.9,57.1,22.4,59.5,53.1h-119.1Z"/>
    <path class="st0" d="M330,129c-32.6,0-55.7,11.2-67.6,32.8v-31.1h-32.2v185.2h33.6v-92.3c0-40.5,22.4-62.5,58.5-62.5,2.6,0,5.1,0,7.7.4v-32.5Z"/>
    <path class="st0" d="M800.2,289.8c-18.5,0-24.5-11.2-24.5-31.1v-100.3h53.2v-27.6h-53.3v-54.3h-33.6v54.3h-11.6v27.6h11.6v101.7c0,37.4,16.8,58,54.2,58,13.2.5,26.2-4.2,36-12.9l-10.5-24.1c-5.7,5.7-13.5,8.8-21.6,8.7Z"/>
    <rect class="st0" x="844.7" y="130.8" width="33.6" height="185.2"/>
    <path class="st0" d="M681.9,156.5c-4.2-4.2-8.8-8.1-13.9-11.5-15.6-10.5-34-16.1-52.8-16.1-12.6,0-25.2,2.5-36.8,7.4-16.9,7.1-31.3,19-41.6,34.2-17.9,26.4-21.2,60-8.7,89.4,7.1,16.8,19,31.3,34.3,41.5,26.5,17.8,60.2,21.1,89.6,8.7,11.2-4.7,21.4-11.7,30-20.2v26h29v-185.3h-29v25.8ZM615,288.8c-36.3,0-65.9-29.4-65.9-65.7s29.5-65.7,65.9-65.7,65.9,29.4,65.9,65.7-29.5,65.7-65.9,65.7Z"/>
    <polygon class="st0" points="807.3 105.2 937.5 75.1 687.3 0 846.1 75.1 807.3 105.2"/>
  </g>
</svg>