<?xml version="1.0" encoding="UTF-8"?>
<svg id="svg2" xmlns="http://www.w3.org/2000/svg" version="1.1" xmlns:cc="http://creativecommons.org/ns#" xmlns:dc="http://purl.org/dc/elements/1.1/" xmlns:rdf="http://www.w3.org/1999/02/22-rdf-syntax-ns#" xmlns:svg="http://www.w3.org/2000/svg" viewBox="0 0 465.3 78.7">
  <defs>
    <style>
      .cls-1 {
        fill: #fff;
        stroke-width: 0px;
      }
    </style>
  </defs>
  <g id="g10">
    <g id="g12">
      <g>
        <path class="cls-1" d="M107,28.3h-24v11.5h23c1.9,0,3.1-1.4,3.7-3.9v-3.2c-.2-2.5-1.1-4-2.7-4.5Z"/>
        <path class="cls-1" d="M128.9,7.8C123.7,2.6,117.4,0,110,0H26.4C19,0,12.8,2.6,7.6,7.8,2.4,13-.2,19.3-.2,26.7v25.3c0,7.4,2.6,13.7,7.8,18.9s11.5,7.8,18.9,7.8h83.6c7.4,0,13.7-2.6,18.9-7.8,5.2-5.2,7.8-11.5,7.8-18.9v-25.3c0-7.4-2.6-13.7-7.8-18.9ZM65.2,63.8H16.7V15.9h15.5v35h33v12.9ZM124.6,38.3c-.7,9.4-5.1,13.9-13.1,13.5h-28.7v11.8h-14.5V16.3h43.2c8.1,0,12.5,4.2,13.1,12.7v9.3Z"/>
      </g>
      <path id="path20" class="cls-1" d="M238.1,63.1h10.3V23.8h-10.3v39.3Z"/>
      <path id="path22" class="cls-1" d="M328.6,32.3h10.9v-8.3h-10.9v8.3Z"/>
      <path id="path24" class="cls-1" d="M328.7,63.8h10.9v-28.3h-10.9v28.3Z"/>
      <path id="path26" class="cls-1" d="M324.9,43.1v-7.8h-16.1v-6.2h-10.2v6.3h-6v7.9h5.9v15.8c.8,2.9,3.3,4.5,7.7,4.9h11.7c4.6-.3,7.3-2.9,8.1-7.5v-5.2h-9v2.5c0,1.9-1.1,3-3.3,3.2h-2c-1.3-.1-2.4-.9-3.3-2.2v-11.7h16.7"/>
      <path id="path28" class="cls-1" d="M224.1,34.7h-18.1c-6.8.3-10.3,3.3-10.7,8.8v11.3c.5,6.1,4.4,9.1,11.8,9.2h12.7c10.1.3,14.9-3.2,14.5-10.5v-8.3c.3-5.9-3.1-9.4-10.2-10.5ZM219.1,42.5c3.2.4,4.8,1.9,4.9,4.3v4.5c-.1,3.3-1.7,4.9-4.9,4.8h-8.3c-3.7.2-5.6-1.1-5.8-3.7v-5.5c0-2.9,1.7-4.3,5.1-4.5h9"/>
      <path id="path30" class="cls-1" d="M253,35.7v19.1c1,5.2,4.5,8.3,10.5,9.3h9c4.1-.7,6.9-2.7,8.3-6v5h9.5v-27.7h-10.2v15.2c0,3.6-1.7,5.5-4.8,5.8h-7.9c-2.6,0-4.1-1.7-4.3-5.1v-15.7h-10.1"/>
      <path id="path32" class="cls-1" d="M190.8,31.3c0-4.7-3.2-7.2-9.9-7.7h-28c-4.5,1.4-7,4.1-7.7,8v7.3c0,5.5,3.1,8.4,9.3,8.8h22.9c1.8.4,2.9,1.3,3.1,2.9v2.7c-.6,1-1.6,1.6-3,1.8h-18.7c-1.7-.9-2.5-1.9-2.5-3.1v-1.5h-11.7v6.2c.7,4.3,4.6,6.7,11.5,7.1h23.2c8.5,0,12.6-3.1,12.3-9.3v-8.3c.4-4.5-3.6-7-12-7.3h-19.3c-2.7-.3-4.1-1.6-4.2-3.7.6-1.7,2-2.4,4.3-2.3h16c1.5,0,2.5.8,2.9,2.2v1.5h11.3v-5.1"/>
      <path id="path34" class="cls-1" d="M368.1,64.5c9,.7,13.9-2.9,14.5-10.5v-8.3c-.1-6.7-3.5-10.3-10.2-10.5h-18.1c-7,0-10.6,3-10.7,8.8v11.3c.3,5.7,4.3,8.8,11.8,9.2h12.7ZM367.4,42.9c3.1.5,4.7,1.9,4.9,4.3v4.5c0,3.4-1.6,5-4.9,4.8h-8.3c-3.9.2-5.9-1.1-5.8-3.7v-5.5c-.3-3.1,1.4-4.6,5.1-4.5h9"/>
      <path id="path36" class="cls-1" d="M423.9,63.5v-18.3c-.2-5.7-3.5-9.1-10-10h-8c-4.3-.2-7.7,1.3-10.2,4.5v-4.2h-9.7v27.5h10.5v-15.3c.6-3,2.5-4.7,5.7-5h6.7c2.3.3,3.9,1.7,4.5,4v16.8h10.5"/>
      <path id="path38" class="cls-1" d="M440.1,45.7c-1.8-.2-2.7-.9-2.8-2,0-1.2.9-2,2.3-2.3h9c2.7-.3,4.5.5,5.5,2.3h9.9v-4.2c-1.2-3-4.1-4.5-8.7-4.7h-18.7c-5.2.6-8.1,2.9-8.7,6.9v5.1c.5,3.4,3,5.3,7.7,5.9h16.3c1.9-.2,3.2.6,3.8,2.5-.7,1.9-2.3,2.9-4.7,3h-8c-3.3,0-5.1-1.3-5.1-3.5h-10.5v3c1.5,4.1,4.4,5.9,8.5,5.7h18c6.9.5,10.7-1.4,11.7-5.7v-6c-.7-3.9-2.9-5.9-6.5-6h-19"/>
    </g>
  </g>
</svg>