<svg xmlns="http://www.w3.org/2000/svg" x="0px" y="0px" width="65px" height="56px" viewBox="0 0 65 56">
<path fill="#FF4013" d="M8,0h49c4.4,0,8,3.6,8,8v40c0,4.4-3.6,8-8,8H8c-4.4,0-8-3.6-8-8V8C0,3.6,3.6,0,8,0z"/>
<path fill="#FFFFFF" d="M47.6,32c-0.7,0-1.3,0.2-1.8,0.5L43,28l2.7-4.6c0.6,0.4,1.2,0.6,1.9,0.6c1.9,0,3.5-1.6,3.5-3.5
	S49.5,17,47.6,17c-1,0-1.9,0.4-2.6,1.1l-8.7-4.9c0-0.2,0.1-0.4,0.1-0.6c0-1.9-1.6-3.5-3.5-3.5s-3.5,1.6-3.5,3.5c0,0.2,0,0.4,0.1,0.6
	l-8.5,4.9c-0.6-0.6-1.5-1-2.4-1c-1.9,0-3.5,1.6-3.5,3.5s1.6,3.5,3.5,3.5c0.6,0,1.2-0.2,1.7-0.4l2.6,4.3L20,32.4
	c-0.5-0.2-1-0.4-1.5-0.4c-1.9,0-3.5,1.6-3.5,3.5c0,1.9,1.6,3.5,3.5,3.5c1,0,1.9-0.4,2.6-1.1l8.5,4.8c-0.1,0.3-0.1,0.5-0.1,0.8
	c0,1.9,1.6,3.5,3.5,3.5s3.5-1.6,3.5-3.5c0-0.3-0.1-0.6-0.1-0.9l8.5-4.9c0.6,0.8,1.6,1.3,2.7,1.3c1.9,0,3.5-1.6,3.5-3.5
	C51.1,33.6,49.5,32,47.6,32z M45,33.2c-0.1,0.2-0.3,0.3-0.4,0.5l-3.8-2.1l1.6-2.7L45,33.2z M33.4,24.5V16c0.3,0,0.6-0.1,0.9-0.2
	l4.9,8.1l-3.7,2C35,25.1,34.3,24.6,33.4,24.5z M32.4,15.9v8.5c-0.9,0.1-1.7,0.6-2.3,1.3l-3.6-2l5-8.1C31.7,15.8,32,15.9,32.4,15.9z
	 M29.6,26.6c-0.2,0.4-0.3,0.8-0.3,1.3c0,0.4,0.1,0.8,0.2,1.2l-3.6,2l-2-3.2l2-3.2L29.6,26.6z M30,30c0.6,0.8,1.4,1.3,2.4,1.4v8.7
	c-0.3,0-0.5,0.1-0.8,0.2l-5.1-8.4L30,30z M33.4,40v-8.7c0.9-0.2,1.8-0.7,2.3-1.4l3.7,2l-5,8.3C34.1,40.2,33.7,40.1,33.4,40z
	 M36.1,29.1c0.1-0.4,0.2-0.7,0.2-1.1c0-0.4-0.1-0.9-0.2-1.3l3.7-2l2,3.3l-1.9,3.2L36.1,29.1z M42.4,27l-1.7-2.8l3.9-2.1
	c0.1,0.2,0.3,0.4,0.4,0.6L42.4,27z M44.5,18.9c-0.2,0.5-0.4,1-0.4,1.5c0,0.2,0,0.4,0.1,0.7l-4,2.2l-5-8.2c0.4-0.3,0.6-0.7,0.9-1.1
	L44.5,18.9z M30.6,15.1l-5,8.2l-3.7-2C22,21,22,20.8,22,20.5c0-0.6-0.2-1.2-0.5-1.7l8.2-4.7C30,14.5,30.3,14.8,30.6,15.1z M21,22.9
	c0.2-0.2,0.4-0.4,0.5-0.7l3.6,1.9l-1.7,2.7L21,22.9z M23.4,28.8l1.7,2.7l-3.7,2c-0.1-0.2-0.3-0.4-0.5-0.6L23.4,28.8z M21.6,37
	c0.2-0.5,0.4-1,0.4-1.5c0-0.4-0.1-0.7-0.2-1.1l3.8-2.1l5.2,8.4c-0.3,0.3-0.6,0.6-0.8,0.9L21.6,37z M36,41.6
	c-0.2-0.3-0.4-0.5-0.7-0.8l5-8.4l3.9,2.2c-0.1,0.3-0.1,0.6-0.1,0.9c0,0.5,0.1,0.9,0.3,1.4L36,41.6z"/>
</svg>
