<svg xmlns="http://www.w3.org/2000/svg" x="0px" y="0px" width="65px" height="56px" viewBox="0 0 65 56">
<path fill="#FF4013" d="M8,0h49c4.4,0,8,3.6,8,8v40c0,4.4-3.6,8-8,8H8c-4.4,0-8-3.6-8-8V8C0,3.6,3.6,0,8,0z"/>
<path fill="#FFFFFF" d="M32.6,40.7H17.1V20.4h31.1v4.8"/>
<path fill="#FFFFFF" d="M41,19.2h-2.4v-3.6h-12v3.6h-2.4v-6H41V19.2z"/>
<path fill="#FFFFFF" d="M50.6,28.8L47.7,29l-4.2,4.1l2.6,2.8l4.2-4.2L50.6,28.8z"/>
<path fill="#FFFFFF" d="M36.6,40l-2,4.8l4.7-1.9l5.3-5.4l-2.8-2.6L36.6,40z"/>
</svg>
