<svg xmlns="http://www.w3.org/2000/svg" x="0px" y="0px" width="65px" height="56px" viewBox="0 0 65 56">
<path fill="#FF4013" d="M8,0h49c4.4,0,8,3.6,8,8v40c0,4.4-3.6,8-8,8H8c-4.4,0-8-3.6-8-8V8C0,3.6,3.6,0,8,0z"/>
<path fill="#FFFFFF" d="M40.8,42.9c0,1.4,1.2,2.6,2.6,2.6s2.6-1.2,2.6-2.6s-1.2-2.6-2.6-2.6l0,0c-1.4,0-2.5,1-2.6,2.4
	C40.8,42.8,40.8,42.8,40.8,42.9z"/>
<path fill="#FFFFFF" d="M25,42.9c0,1.4,1.2,2.6,2.6,2.6s2.6-1.2,2.6-2.6s-1.2-2.6-2.6-2.6l0,0c-1.4,0-2.5,1-2.6,2.4
	C25,42.8,25,42.8,25,42.9z"/>
<path fill="#FFFFFF" d="M49.9,16.6h-29l-0.5-1.5c-0.2-1-1.6-2.5-7.3-2.5v2.7c3.5,0,4.6,0.6,4.9,0.8l6.8,21.7h19.8v-3.1H26.8
	l-1.3-3.9h19.8L49.9,16.6z M41.3,26.8H25.6v-1.6h15.7V26.8z M42.9,22H24.9v-1.6h18.1V22z"/>
</svg>
