<svg xmlns="http://www.w3.org/2000/svg" x="0px" y="0px" width="65px" height="56px" viewBox="0 0 65 56">
<path fill="#FF4013" d="M8,0h49c4.4,0,8,3.6,8,8v40c0,4.4-3.6,8-8,8H8c-4.4,0-8-3.6-8-8V8C0,3.6,3.6,0,8,0z"/>
<path fill="#FFFFFF" d="M32.4,27.1c0.2,0,0.3,0,0.5,0c3.5,0,6.5-3,7.3-5.8h2.2c-1,4.6-5.1,7.9-9.8,7.8v1.2c5.5,0,10-4.9,11-9h-0.1
	v-2.7h-3.2c-0.5-3.6-3.6-6.3-7.3-6.2c-4-0.1-7.4,3.1-7.5,7.1c0,0,0,0.1,0,0.1C25.3,23.7,28.4,27,32.4,27.1z"/>
<path fill="#FFFFFF" d="M38.8,31c-0.9,1-3.1,1.7-5.7,1.7c-2.4,0-4.5-0.6-5.5-1.6c-5,1.8-8.8,5.9-8.8,11.3c5.1,0,23.1-0.2,28.7-0.2
	C47.5,36.7,43.9,32.7,38.8,31z"/>
</svg>
